<?xml version="1.0" encoding="iso-8859-1"?>
<svg version="1.1" xmlns="http://www.w3.org/2000/svg" xmlns:xlink="http://www.w3.org/1999/xlink" x="0px" y="0px"
	 viewBox="0 0 449.306 449.306" style="enable-background:new 0 0 449.306 449.306;" xml:space="preserve">
			<path d="M447.739,251.298l-59.037-126.433c-1.731-3.54-5.484-5.625-9.404-5.224h-50.155c-5.771,0-10.449,4.678-10.449,10.449
				c0,5.771,4.678,10.449,10.449,10.449h43.363l48.588,104.49h-59.559c-27.004-0.133-51.563,15.625-62.694,40.229
				c-8.062,16.923-25.141,27.698-43.886,27.69h-60.604c-18.745,0.008-35.823-10.767-43.886-27.69
				c-11.131-24.604-35.69-40.362-62.694-40.229H29.257l57.469-104.49h33.437c5.771,0,10.449-4.678,10.449-10.449
				c0-5.771-4.678-10.449-10.449-10.449H80.457c-3.776-0.358-7.425,1.467-9.404,4.702L2.09,250.776
				c-1.209,1.072-1.958,2.569-2.09,4.18v130.09c0.832,29.282,24.524,52.744,53.812,53.29h341.682
				c29.289-0.546,52.98-24.008,53.812-53.29v-130.09C449.107,253.622,448.567,252.362,447.739,251.298z M428.408,385.045
				c-0.812,17.743-15.16,31.864-32.914,32.392H53.812c-17.754-0.528-32.102-14.648-32.914-32.392V265.927h66.873
				c18.745-0.008,35.823,10.767,43.886,27.69c11.131,24.604,35.69,40.362,62.694,40.229h60.604
				c27.004,0.133,51.563-15.625,62.694-40.229c8.062-16.923,25.141-27.698,43.886-27.69h66.873V385.045z"/>
</svg>