<?xml version="1.0" encoding="iso-8859-1"?>
<svg version="1.1" id="Capa_1" xmlns="http://www.w3.org/2000/svg" xmlns:xlink="http://www.w3.org/1999/xlink" x="0px" y="0px"
	 viewBox="0 0 512 512" style="enable-background:new 0 0 512 512;" xml:space="preserve">
<g>
	<g>
		<path d="M404.359,153.835c-39.342-39.343-92.731-61.457-148.37-61.454c-56.039,0.003-108.722,21.827-148.347,61.452
			c-1.142,1.142-2.265,2.297-3.376,3.46V15c0-8.284-6.716-15-15-15H61.19c-8.284,0-15,6.716-15,15v285.486
			c0,55.578,21.294,109.299,60.294,148.896C146.24,489.747,199.409,512,255.998,512c55.846,0,109.51-22.34,148.867-61.961
			c39.306-39.569,60.944-92.045,60.944-147.848C465.81,246.15,443.987,193.463,404.359,153.835z M256,453.924
			c-83.666,0-151.734-68.067-151.734-151.733c0-83.667,68.068-151.734,151.734-151.734s151.734,68.068,151.734,151.734
			S339.667,453.924,256,453.924z"/>
	</g>
</g>
<g>
</g>
<g>
</g>
<g>
</g>
<g>
</g>
<g>
</g>
<g>
</g>
<g>
</g>
<g>
</g>
<g>
</g>
<g>
</g>
<g>
</g>
<g>
</g>
<g>
</g>
<g>
</g>
<g>
</g>
</svg>
