<?xml version="1.0" encoding="iso-8859-1"?>
<!-- Generator: Adobe Illustrator 16.0.0, SVG Export Plug-In . SVG Version: 6.00 Build 0)  -->
<!DOCTYPE svg PUBLIC "-//W3C//DTD SVG 1.1//EN" "http://www.w3.org/Graphics/SVG/1.1/DTD/svg11.dtd">
<svg version="1.1" id="Capa_1" xmlns="http://www.w3.org/2000/svg" xmlns:xlink="http://www.w3.org/1999/xlink" x="0px" y="0px"
	 width="96.803px" height="96.803px" viewBox="0 0 96.803 96.803" style="enable-background:new 0 0 96.803 96.803;"
	 xml:space="preserve">
<g>
	<g>
		<path d="M36.962,29.912c5.808,0,10.502-6.691,10.502-14.959C47.464,6.682,42.769,0,36.962,0c-5.811,0-10.518,6.682-10.518,14.953
			C26.444,23.22,31.15,29.912,36.962,29.912z"/>
		<path d="M62.001,30.896c7.775,1.018,12.757-7.275,13.752-13.561c1.02-6.275-4.005-13.576-9.497-14.827
			c-5.515-1.27-12.4,7.561-13.021,13.321C52.48,22.875,54.235,29.902,62.001,30.896z"/>
		<path d="M17.422,51.014c10.521-2.261,9.085-14.85,8.777-17.6c-0.518-4.242-5.505-11.65-12.271-11.059
			c-8.519,0.759-9.762,13.063-9.762,13.063C3.011,41.118,6.918,53.279,17.422,51.014z"/>
		<path d="M81.034,67.841c0,0-12.02-9.297-19.033-19.351c-9.523-14.818-23.039-8.783-27.556-1.257
			c-4.505,7.544-11.507,12.311-12.51,13.576c-1.011,1.239-14.516,8.536-11.519,21.861C13.419,95.984,23.95,95.732,23.95,95.732
			s7.762,0.758,16.763-1.254c9.02-2.01,16.78,0.491,16.78,0.491s21.041,7.056,26.791-6.521
			C90.039,74.886,81.034,67.841,81.034,67.841z"/>
		<path d="M92.791,41.455c0-3.006-2.489-12.066-11.756-12.066c-9.286,0-10.513,8.551-10.513,14.591c0,5.768,0.48,13.81,12.013,13.56
			C94.054,57.283,92.791,44.48,92.791,41.455z"/>
	</g>
</g>
<g>
</g>
<g>
</g>
<g>
</g>
<g>
</g>
<g>
</g>
<g>
</g>
<g>
</g>
<g>
</g>
<g>
</g>
<g>
</g>
<g>
</g>
<g>
</g>
<g>
</g>
<g>
</g>
<g>
</g>
</svg>
