<svg height="512pt" viewBox="0 0 512 512" width="512pt" xmlns="http://www.w3.org/2000/svg"><path d="m106 76c-8.277344 0-15 6.722656-15 15v45h30v-45c0-8.277344-6.722656-15-15-15zm0 0"/><path d="m406 76c-8.277344 0-15 6.722656-15 15v45h30v-45c0-8.277344-6.722656-15-15-15zm0 0"/><path d="m0 241h512v-241h-512zm361-150c0-24.8125 20.1875-45 45-45s45 20.1875 45 45v75h-90zm-180 75h30v-85.8125l120-40.003906v125.816406h-60v-30h30v-54.183594l-60 19.992188v94.191406h-60zm-120-75c0-24.8125 20.1875-45 45-45s45 20.1875 45 45v75h-90zm0 0"/><path d="m301 437c0-19.53125-12.578125-36.023438-30-42.238281v117.238281h30zm0 0"/><path d="m241 394.761719c-17.421875 6.214843-30 22.707031-30 42.238281v75h30zm0 0"/><path d="m391 271h-270v151h30v90h30v-75c0-41.351562 33.648438-75 75-75s75 33.648438 75 75v75h30v-90h30zm-90 60h-90v-30h90zm0 0"/><path d="m121 452h-30v-181h-61v181h-30v60h121zm0 0"/><path d="m481 271h-60v181h-30v60h121v-60h-31zm0 0"/></svg>