<?xml version="1.0" encoding="iso-8859-1"?>
<!-- Generator: Adobe Illustrator 16.0.0, SVG Export Plug-In . SVG Version: 6.00 Build 0)  -->
<!DOCTYPE svg PUBLIC "-//W3C//DTD SVG 1.1//EN" "http://www.w3.org/Graphics/SVG/1.1/DTD/svg11.dtd">
<svg version="1.1" id="Capa_1" xmlns="http://www.w3.org/2000/svg" xmlns:xlink="http://www.w3.org/1999/xlink" x="0px" y="0px"
	 width="98.802px" height="98.803px" viewBox="0 0 98.802 98.803" style="enable-background:new 0 0 98.802 98.803;"
	 xml:space="preserve">
<g>
	<g>
		<path d="M95.568,57.454c-1.74-4.367-3.976-8.49-6.733-12.316c-0.295-0.408-0.602-0.729-0.329-1.404
			c1.326-3.281,0.896-6.463-0.798-9.515c-0.763-1.376-1.668-2.684-1.755-4.342c-0.127-2.393-0.734-4.692-1.356-6.994
			c-2.17-8.031-6.494-14.449-13.937-18.479c-4.224-2.287-8.764-3.589-13.545-4.115C52.19-0.253,47.321-0.04,42.472,0.987
			c-8.02,1.701-13.92,6.429-18.489,12.984c-3.001,4.308-5.137,8.993-5.776,14.3c-0.123,1.021,0.25,2.146-0.41,3.085
			c-0.573,0.812-0.9,1.724-1.063,2.675c-0.245,1.425-0.573,2.778-1.304,4.073c-0.888,1.57-1.127,3.374-0.764,5.138
			c0.157,0.758-0.005,1.153-0.531,1.548c-3.109,2.327-5.68,5.131-7.84,8.373c-3.077,4.616-4.894,9.619-5.189,15.16
			c-0.119,2.225,0.15,4.398,0.933,6.505c0.379,1.02,0.88,1.498,2.084,1.148c1.013-0.293,1.878-0.748,2.645-1.423
			c1.6-1.404,2.905-3.04,3.769-5.004c0.1-0.228,0.074-0.579,0.439-0.561c0.332,0.016,0.363,0.306,0.42,0.573
			c0.518,2.398,1.633,4.556,2.829,6.659c1.276,2.247,3.105,4.056,5.017,5.75c0.667,0.592,1.614,0.868,1.987,1.871
			c-1.38-0.002-2.656,0.194-3.863,0.609c-2.062,0.711-3.895,1.764-4.372,4.145c-0.456,2.275-0.613,4.522,1.467,6.206
			c0.823,0.666,1.734,1.195,2.716,1.614c3.463,1.477,7.142,1.956,10.837,2.194c4.568,0.294,9.156,0.404,13.635-0.838
			c2.596-0.722,4.999-1.891,7.251-3.366c0.213-0.14,0.354-0.46,0.658-0.372c1.79,0.518,3.677-0.02,5.49,0.687
			c2.91,1.136,5.917,2.001,9.02,2.501c4.605,0.744,9.227,1.093,13.874,0.502c3.149-0.401,6.235-1.094,8.993-2.768
			c3.546-2.153,3.654-5.891,0.326-8.31c-1.64-1.192-3.38-2.186-5.205-3.05c-0.472-0.223-0.991-0.376-1.364-0.893
			c3.672-3.374,5.523-7.843,7.374-12.409c1.054,1.952,2.08,3.805,3.441,5.433c1.449,1.731,2.711,1.69,4.132-0.04
			c0.566-0.69,0.981-1.451,1.239-2.315C98.51,67.896,97.619,62.604,95.568,57.454z M55.018,22.695
			c-0.062-2.094,0.374-4.126,1.512-5.984c2.2-3.594,5.927-3.671,8.122-0.082c1.899,3.109,1.954,7.003,0.982,10.438
			c-0.47,1.66-1.153,3.151-2.801,3.994c-2.239,1.145-4.307,0.692-5.812-1.331C55.482,27.662,54.927,25.299,55.018,22.695z
			 M40.416,15.943c2.095-2.708,5.158-2.722,7.237-0.017c1.574,2.05,2.052,4.435,2.091,7.159c-0.076,2.407-0.588,4.892-2.398,6.899
			c-2.086,2.315-4.877,2.194-6.817-0.231C37.729,26.254,37.674,19.486,40.416,15.943z M31.089,39.146
			c3.005-2.065,6.387-3.264,9.902-4.027c7.729-1.682,15.478-1.892,23.2,0.086c3.134,0.803,6.169,1.89,8.897,3.668
			c1.692,1.104,1.673,1.513-0.021,2.552c-1.81,1.109-3.694,2.027-6.063,2.02c0.854-0.947,1.935-1.479,2.597-2.923
			c-11.517,7.921-22.792,8.559-34.122,0.353c0.501,0.808,1.002,1.614,1.618,2.606c-2.195-0.55-4.16-1.071-5.952-2.04
			C29.729,40.672,29.748,40.068,31.089,39.146z M45.498,94.378c-1.388,1.356-3.231,1.805-4.997,2.193
			c-6.68,1.475-13.408,1.794-20.09,0.042c-2.074-0.543-4.159-1.262-5.741-2.864c-1.172-1.185-1.151-2.205,0.02-3.421
			c0.726-0.755,1.572-1.359,2.358-2.14c-0.603,0.107-1.211,0.196-1.808,0.337c-0.297,0.069-0.646,0.303-0.824-0.039
			c-0.122-0.235-0.103-0.648,0.025-0.892c0.29-0.544,0.689-1.041,1.236-1.357c0.763-0.443,1.53-0.892,2.332-1.255
			c1.908-0.865,3.584-0.936,5.472,0.514c3.637,2.791,7.861,4.532,12.245,5.885c3.109,0.96,6.28,1.586,9.487,2.072
			c0.244,0.038,0.583-0.093,0.711,0.2C46.091,94.035,45.705,94.175,45.498,94.378z M81.455,84.153
			c1.248,0.611,2.564,1.141,4.022,2.31c-1.181,0.092-2.198,0.127-3.067,0.681c-0.171,0.106-0.416,0.311-0.405,0.454
			c0.028,0.373,0.373,0.263,0.621,0.262c1.151-0.001,2.304-0.059,3.452,0.001c2.125,0.109,3.197,1.731,2.403,3.692
			c-1.039,2.568-3.396,3.5-5.763,4.248c-7.481,2.366-14.902,1.625-22.27-0.625c-0.812-0.249-1.776-0.215-2.169-1.324
			c7.716-1.221,14.533-4.239,20.361-9.354C79.717,83.552,80.247,83.559,81.455,84.153z M84.223,68.128
			c-0.26,4.43-1.97,8.329-4.652,11.788c-5.173,6.673-11.993,10.796-20.188,12.656c-3.104,0.706-6.256,0.349-9.376,0.045
			c-4.791-0.465-9.515-1.327-13.972-3.219c-2.77-1.177-5.435-2.546-7.813-4.473c-4.629-3.753-8.246-8.165-9.446-14.146
			c-1.086-5.412-0.645-10.715,1.674-15.791c0.164-0.358,0.373-0.696,0.543-1.052c0.414-0.856,0.823-1.223,1.793-0.484
			c1.042,0.791,2.265,1.348,3.431,1.966c0.447,0.237,0.563,0.432,0.49,1.003c-0.504,4.039-0.938,8.08-0.483,12.171
			c0.272,2.438,1.731,3.976,3.747,4.851c2.783,1.207,5.785,1.057,8.735,0.577c1.204-0.195,2.569-1.76,2.516-3.548l-0.192-8.102
			l-0.069-1.684c3.209,0.899,6.507,1.185,9.782,1.263c7.792,0.186,15.094-1.702,22.083-5.021c2.072-0.983,4.073-2.088,5.977-3.359
			c0.473-0.315,0.655-0.347,1.007,0.171C82.755,58.09,84.538,62.793,84.223,68.128z M36.888,64.798l-0.091-3.047
			c0.059-0.565-0.266-1.596,0.643-1.748c1.124-0.188,2.169,0.613,2.277,1.747c0.269,2.827,0.451,5.684,0.349,8.552
			c-0.049,1.381-0.726,2.211-2.281,2.291c-2.221,0.117-4.431,0.192-6.611-0.293c-3.059-0.683-4.14-2.181-4.231-5.647
			c-0.087-3.265,0.691-6.405,1.279-9.576c0.094-0.508,0.288-0.49,0.706-0.312c1.94,0.832,3.841,1.771,5.895,2.308
			c0.619,0.161,0.524,0.587,0.541,1.025c0.076,2.042,0.341,4.055,1.032,5.99c0.113,0.316,0.279,0.617,0.525,1.172L36.888,64.798z
			 M87.863,41.959c-0.713,3.928-2.98,6.794-6.25,8.828c-6.996,4.354-14.417,7.735-22.591,9.235
			c-4.74,0.869-9.478,0.834-14.262,0.222c-5.7-0.728-11.113-2.364-16.314-4.708c-4.34-1.956-8.464-4.3-11.461-8.165
			c-2.191-2.824-2.488-5.776-0.475-8.403c0.613,3.759,2.714,6.468,5.648,8.647c-1.113-1.906-2.246-3.8-3.333-5.72
			c-1.16-2.046-1.057-4.28-0.949-6.513c0.127-0.013,0.255-0.054,0.276-0.023c3.985,5.908,9.673,9.502,16.248,11.818
			c8.313,2.933,16.929,3.846,25.633,2.862c8.854-1,16.799-4.403,23.481-10.46c0.426-0.385,0.882-0.734,1.218-1.014
			c-1.527,6.333-6.051,10.371-11.515,13.634c7.514-2.716,11.403-8.663,14.022-15.749C88.027,37.638,88.234,39.91,87.863,41.959z"/>
		<path d="M57.824,24.385c0.522,0.103,0.59-0.406,0.691-0.783c0.194-0.719,0.302-1.658,1.196-1.672
			c0.82-0.011,0.854,0.921,0.957,1.529c0.082,0.484,0.37,0.993,0.901,0.919c0.674-0.094,0.597-3.508-1.134-4.097
			c-1.595-0.601-3.162,0.939-3.122,3.106C57.321,23.776,57.325,24.288,57.824,24.385z"/>
		<path d="M46.776,26.242c0.833,0.062,1.306-0.495,1.617-1.142c0.776-1.614,0.754-3.243-0.183-4.788
			c-0.681-1.121-1.811-1.173-2.591-0.158c-0.619,0.805-0.779,1.753-0.757,2.742c0.015,0.705,0.073,1.401,0.379,2.056
			C45.552,25.621,45.975,26.179,46.776,26.242z"/>
	</g>
</g>
<g>
</g>
<g>
</g>
<g>
</g>
<g>
</g>
<g>
</g>
<g>
</g>
<g>
</g>
<g>
</g>
<g>
</g>
<g>
</g>
<g>
</g>
<g>
</g>
<g>
</g>
<g>
</g>
<g>
</g>
</svg>
