<?xml version="1.0" encoding="iso-8859-1"?>
<!-- Generator: Adobe Illustrator 16.0.0, SVG Export Plug-In . SVG Version: 6.00 Build 0)  -->
<!DOCTYPE svg PUBLIC "-//W3C//DTD SVG 1.1//EN" "http://www.w3.org/Graphics/SVG/1.1/DTD/svg11.dtd">
<svg version="1.1" id="Capa_1" xmlns="http://www.w3.org/2000/svg" xmlns:xlink="http://www.w3.org/1999/xlink" x="0px" y="0px"
	 width="97.75px" height="97.75px" viewBox="0 0 97.75 97.75" style="enable-background:new 0 0 97.75 97.75;" xml:space="preserve"
	>
<g>
	<g>
		<path d="M48.875,0C21.883,0,0,21.882,0,48.875S21.883,97.75,48.875,97.75S97.75,75.868,97.75,48.875S75.867,0,48.875,0z
			 M17.427,46.116h-3.716v10.106H9.957V46.116H6.242v-3.654h11.185V46.116z M29.998,56.225h-4.13v-4.336h-3.274v4.336h-4.128v-9.478
			c0,0-0.108-4.478,3.754-4.478c3.861,0,0.796,0,4.011,0c3.768,0,3.768,4.478,3.768,4.478L29.998,56.225L29.998,56.225z
			 M38.165,56.225l-1.587-3.379h-1.157v3.379h-3.754V42.462c0,0,5.075,0,7.52,0s2.86,2.549,2.86,2.549s0,0.064,0,3.048
			s-1.768,3.555-1.768,3.555l1.946,4.609h-4.06V56.225z M47.31,56.225h-3.754V42.462h3.754V56.225z M56.748,56.225l-4.089-7.209
			v7.209H48.93V42.462h4.011l4.103,7.218v-7.218h3.715v13.744l0.015,0.019H56.748z M72.875,53.684c0,0-0.284,2.541-4.346,2.541
			c-0.348,0-0.596,0-0.771,0c0,0-0.09,0-0.362,0c-0.176,0-0.429,0-0.783,0c-4.256,0-4.801-2.523-4.801-2.523v-7.584
			c0,0-0.223-3.654,3.766-3.654s6.471,0,6.471,0l0.004,3.658h0.004v0.054c0-0.017-0.002-0.037-0.004-0.055l-6.486-0.004v6.841h3.521
			v-2.339h-2.024v-2.55h5.812V53.684z M85.732,56.225h-4.129v-4.336h-3.275v4.336h-4.127v-9.478c0,0-0.108-4.478,3.754-4.478
			c3.861,0,0.796,0,4.011,0c3.769,0,3.769,4.478,3.769,4.478v9.478H85.732z M91.507,56.225h-3.726v-3.892h3.726V56.225z
			 M87.782,51.546v-10.02h3.726v10.02H87.782z"/>
		<rect x="78.328" y="46.31" width="3.275" height="2.842"/>
		<rect x="22.594" y="46.31" width="3.274" height="2.842"/>
		<rect x="35.275" y="45.971" width="3.113" height="2.919"/>
	</g>
</g>
<g>
</g>
<g>
</g>
<g>
</g>
<g>
</g>
<g>
</g>
<g>
</g>
<g>
</g>
<g>
</g>
<g>
</g>
<g>
</g>
<g>
</g>
<g>
</g>
<g>
</g>
<g>
</g>
<g>
</g>
</svg>
