<svg height="512pt" viewBox="-21 0 511 512" width="512pt" xmlns="http://www.w3.org/2000/svg"><path d="m251.90625 289.269531c-5.855469 5.859375-15.351562 5.859375-21.210938 0l-68.164062-68.164062c-2.8125-2.8125-4.394531-6.628907-4.394531-10.605469 0-3.980469 1.582031-7.792969 4.394531-10.609375l12.117188-12.113281-35.589844-35.589844-29.15625 29.15625c-9.8125 9.8125-9.808594 25.777344 0 35.589844l124.964844 124.972656c4.722656 4.722656 11.042968 7.320312 17.796874 7.320312 6.753907 0 13.074219-2.601562 17.796876-7.324218l29.15625-29.152344-35.589844-35.59375zm0 0"/><path d="m468.984375 180.710938c0-48.089844-18.84375-93.417969-53.070313-127.640626-34.222656-34.222656-79.550781-53.070312-127.636718-53.070312h-107.074219s0 0-.003906 0c-48.082031 0-93.410157 18.847656-127.628907 53.066406-34.222656 34.222656-53.070312 79.554688-53.070312 127.640625v84.164063c0 37.238281 11.359375 73.0625 32.851562 103.597656 18.960938 26.9375 44.460938 47.976562 74.191407 61.320312v48.34375c0 24.996094 13.996093 33.863282 25.980469 33.867188 8.5625 0 17.128906-4.226562 25.464843-12.558594l53.855469-53.863281h75.4375c48.085938 0 93.414062-18.847656 127.636719-53.070313 34.222656-34.222656 53.070312-79.550781 53.070312-127.636718zm-137.546875 142.644531-39.765625 39.761719c-10.390625 10.390624-24.242187 16.105468-39.007813 16.105468-14.765624 0-28.617187-5.71875-39.007812-16.105468l-124.96875-124.972657c-21.503906-21.511719-21.503906-56.507812 0-78.015625l39.765625-39.761718c2.8125-2.816407 6.625-4.394532 10.605469-4.394532 3.976562 0 7.792968 1.578125 10.605468 4.394532l56.804688 56.804687c2.8125 2.8125 4.390625 6.628906 4.390625 10.605469 0 3.976562-1.578125 7.792968-4.394531 10.605468l-12.113282 12.113282 46.953126 46.953125 12.117187-12.117188c5.859375-5.855469 15.355469-5.855469 21.210937.003907l56.804688 56.804687c2.816406 2.8125 4.394531 6.628906 4.394531 10.605469 0 3.980468-1.578125 7.796875-4.394531 10.609375zm-108.054688-177.734375c0-8.28125 6.714844-15 15-15 51.972657 0 94.257813 42.28125 94.257813 94.25 0 8.285156-6.714844 15-15 15-8.28125 0-15-6.714844-15-15 0-35.425782-28.824219-64.25-64.257813-64.25-8.285156 0-15-6.714844-15-15zm158.519532 94.257812c-8.285156 0-15-6.71875-15-15 .003906-34.332031-13.367188-66.605468-37.640625-90.882812-24.277344-24.273438-56.550781-37.644532-90.882813-37.644532-8.28125 0-15-6.714843-15-15 0-8.28125 6.71875-15 15-15 42.34375 0 82.152344 16.492188 112.09375 46.433594 29.945313 29.941406 46.433594 69.75 46.429688 112.09375 0 8.28125-6.714844 15-15 15zm0 0"/></svg>